# xmcd CD database file
#
# Track frame offsets:
#	150
#	13940
#	27488
#	40028
#	53325
#	66445
#	79968
#	93078
#	107043
#	121175
#	134525
#	148113
#	163258
#	177053
#	187780
#	201278
#	220523
#	235593
#	250385
#	277180
#	292448
#	308280
#
# Disc length: 4327 seconds
#
# Revision: 7
# Processed by: cddbd v1.5.2PL0 Copyright (c) Steve Scherf et al.
# Submitted via: CDex 1.51
#
DISCID=3d10e516
DTITLE=Firehouse Five Plus Two - Vol. 095 - Yes Sir! That's My Baby
DYEAR=1991
DGENRE=Jazz
TTITLE0=Tiger Rag
TTITLE1=Yes Sir! That's My Baby
TTITLE2=Blues My Naughty Sweetie Gives To Me
TTITLE3=Pagan Love Song
TTITLE4=Everybody Loves My Baby
TTITLE5=Riverside Blues
TTITLE6=Frankie and Johnny
TTITLE7=Sweet Georgia Brown
TTITLE8=St. Louis Blues
TTITLE9=12th Street Rag
TTITLE10=Copenhagen
TTITLE11=Wabash Blues
TTITLE12=Lonesome Mama Blues
TTITLE13=Chinatown, My Chinatown
TTITLE14=South
TTITLE15=Tishomingo Blues
TTITLE16=Alabama Jubliee
TTITLE17=Swanee River
TTITLE18=Basin Street Blues
TTITLE19=Working Man Blues
TTITLE20=Come Back, Sweet Papa
TTITLE21=Jazz Me Blues
EXTD=Aufnahmen zwischen 1949 und 1958 YEAR: 1991
EXTT0=
EXTT1=
EXTT2=
EXTT3=
EXTT4=
EXTT5=
EXTT6=
EXTT7=
EXTT8=
EXTT9=
EXTT10=
EXTT11=
EXTT12=
EXTT13=
EXTT14=
EXTT15=
EXTT16=
EXTT17=
EXTT18=
EXTT19=
EXTT20=
EXTT21=
PLAYORDER=
